PathFileType	4	(X/Y/Z)	22_1_40_p0_0-217.trc
DataRate	CameraRate	NumFrames	NumMarkers	Units	OrigDataRate	OrigDataStartFrame	OrigNumFrames
58.0	58.0	6	27	m	58.0	27	218
Frame#	Time	RHip			RKnee			RAnkle			RBigToe			RSmallToe			RHeel			LHip			LKnee			LAnkle			LBigToe			LSmallToe			LHeel			Neck			Head			Nose			RShoulder			RElbow			RWrist			RThumb			RIndex			RPinky			LShoulder			LElbow			LWrist			LThumb			LIndex			LPinky			
		X1	Y1	Z1	X2	Y2	Z2	X3	Y3	Z3	X4	Y4	Z4	X5	Y5	Z5	X6	Y6	Z6	X7	Y7	Z7	X8	Y8	Z8	X9	Y9	Z9	X10	Y10	Z10	X11	Y11	Z11	X12	Y12	Z12	X13	Y13	Z13	X14	Y14	Z14	X15	Y15	Z15	X16	Y16	Z16	X17	Y17	Z17	X18	Y18	Z18	X19	Y19	Z19	X20	Y20	Z20	X21	Y21	Z21	X22	Y22	Z22	X23	Y23	Z23	X24	Y24	Z24	X25	Y25	Z25	X26	Y26	Z26	X27	Y27	Z27	
27	0.46551724137931033	0.24045292479836755	0.6343706691990924	0.9215930047958892	0.26001712850232384	0.7557496371283479	1.3830729384331746	0.2675970423164918	0.9224981479304698	1.8226190243506175	0.22423066664715335	0.6485131875390171	1.8542118798043754	0.2995064351204211	0.7294183752408212	1.8774265619646626	0.28234566743380307	1.007642376640894	1.8797693193278862	0.029954961237319562	0.6660973609468939	0.9363358836580619	0.06089188089428729	0.7694620851064311	1.3868962667859097	0.09366170664761121	0.9014456208378917	1.8189930966613759	0.09787355866341339	0.6944298446550137	1.860961515375806	0.04661225185623671	0.7433348965974511	1.8703922261943229	0.12712031581575212	1.0255842745011172	1.891745976322213	0.09189177462084576	0.4753454115726681	0.38561167429783094	0.0752372259381489	0.33468072211569283	0.16152122693979248	0.07054693057259277	0.3172466735415295	0.30583463525168497	0.2510824636598592	0.4367634164235095	0.4491014897059255	0.3451612477452521	0.5239735946985571	0.7112857206142646	0.19385229820195546	0.38760299685538024	0.9169843052304711	0.08360348540008053	0.3369973802929439	0.9916373621043219	0.09855799532939465	0.2950824068813221	1.020026473578776	0.14906308318156206	0.36424683663220514	1.0400909319671297	-0.06004758985419959	0.475008716908754	0.45087304427135483	-0.11422681780915765	0.5520534173677598	0.6925018131673172	0.007875375747723123	0.4307923778840489	0.8975307420554917	0.06527468102118067	0.3440795592131315	0.956905314425666	0.07421414742387071	0.32498457754042975	0.9806839609976822	0.04488357205002445	0.37772536219764685	0.9996270133429518
28	0.4827586206896552	0.2404533720497585	0.63368421306502	0.9210287285647576	0.2604203657990773	0.7552889929375284	1.3874945455274919	0.2750843680205692	0.9399739821395756	1.8321422160497989	0.22370603566307853	0.6482356465055047	1.854279035907702	0.29928606501165517	0.7296441174901819	1.8774938340835516	0.2817857658435263	1.007129701468428	1.8799248236356623	0.02996535738687899	0.6656782069261192	0.9359604454712067	0.06132506272961195	0.7693555175751385	1.3905603470604888	0.09378599029892483	0.9015597672653229	1.8190903717745326	0.09325916084416898	0.6807197208793087	1.8562643504111243	0.046487328000203165	0.7437084703708763	1.8706836973772794	0.12753700433647644	1.0272388538132713	1.8925464354165684	0.09185631428283865	0.47561909268728386	0.3856452355165577	0.07529551409266926	0.3347339858757507	0.1617017772302742	0.07063910471810751	0.3174832676776174	0.3089482629462808	0.24536753011603282	0.4493010101277347	0.4481067470105388	0.3451681356579177	0.5244218091433681	0.7112710713636597	0.21842587249163106	0.3967061131501919	0.9129235270891115	0.10967725834631706	0.3040827017334934	1.0024894320466278	0.11647317567542959	0.31642140414164727	1.0220270355377106	0.1615660936391811	0.36522450342725216	1.0393966625210382	-0.06008605733128437	0.4750776235318035	0.4507343210831071	-0.12350971893683901	0.5257016021242147	0.6897829804761553	-0.0017707441462058637	0.4156796785070338	0.8901979735639205	0.06379371884073791	0.3542402795863559	0.9567234421095209	0.04910291237589359	0.3427236681393351	0.9684704034871608	0.030581058941919453	0.3736212263418847	0.9925116620955953
29	0.5	0.24007925386547124	0.6350903834363111	0.925356394380747	0.2575524860124757	0.727404574426723	1.386500021434568	0.2675502033019696	0.9212262965770182	1.8223691151140076	0.22501821159684784	0.6509884292764665	1.8545645992827509	0.2962247457753327	0.7017556190829652	1.8671491561497924	0.27764685791012633	0.9772010797689682	1.8735959349933566	0.029661600145749333	0.6671483022383815	0.9395105088377543	0.06163715139945411	0.7697996623170733	1.3907159460719487	0.09534198997357152	0.9044565894925565	1.8246139204202425	0.09332970961911301	0.6809219878072926	1.8562902925775648	0.04683483414053927	0.744438737137439	1.8709775557863382	0.1293645071081448	1.0308134927494286	1.8961366199768075	0.091852804703949	0.47546429362549875	0.3857402499286816	0.07531659704673317	0.3347264087911713	0.16184166595267083	0.07057883481699287	0.3172925997913149	0.3089509521513086	0.2471963899938943	0.43724892379630903	0.4526649743100365	0.34511542978804804	0.5243317048835718	0.7114476201307022	0.22863314674789284	0.4081144415752171	0.9171682363120022	0.1259600938109642	0.31178739278189915	0.991802403595374	0.1365411248844272	0.3248356843127499	1.0048875686025007	0.17378388584052767	0.3609709351109484	1.0346256269779028	-0.06016503281952483	0.4752573981896129	0.4506540492198765	-0.12393833724975355	0.5275549657011873	0.6896255390956483	-0.013598435552430378	0.41536822940894697	0.890401911093255	0.04680510704876654	0.34059459390936564	0.945747333424338	0.03685936624333855	0.34177335600084235	0.9583457336364714	0.01774491234152047	0.3949272904745561	0.9777224361153057
30	0.5172413793103449	0.2443926872419135	0.632584621283076	0.9168125077806255	0.25604841228309977	0.7247807801733316	1.382135854233627	0.26782821412846164	0.9220251553748191	1.8224963961301228	0.22379536600474398	0.6523325068774531	1.859459077532164	0.3016631103954754	0.7153638810941084	1.8718543919421502	0.279623566696054	0.9928425364249142	1.874669421629837	0.02431398059762099	0.6619199220114194	0.9316156650167606	0.06184110230409981	0.7705614598097412	1.3903628493323623	0.0937722923256566	0.9014528230328992	1.8191767686053593	0.09329680842401204	0.6809632049414476	1.8562498523857554	0.04671598307116267	0.7442268351434727	1.8708657872193937	0.12846153234406368	1.029742709615039	1.8937261359229893	0.09184225950737034	0.47566885624457855	0.38910962747181327	0.07530456722282	0.3345485502924457	0.1619529730688279	0.06629556084048241	0.30686442241282136	0.31095595763288125	0.2510394634850229	0.4370114208139793	0.4525157112137309	0.34410146777618605	0.538845319976266	0.7116477326751339	0.23332658206967125	0.406268730137286	0.9136661368601209	0.13981867481935825	0.3220599028883081	0.9813652717407204	0.16037727574810984	0.32232932938837866	0.9919763724746642	0.17752546782041648	0.3616651445843318	1.0308624110223668	-0.06411926847611113	0.4745821758788735	0.4508864248920891	-0.13185920144904176	0.5369540601922431	0.6861409858782385	-0.02727000156982881	0.41110953527571714	0.8836352038089795	0.03926249101078464	0.3386298385472746	0.9426978135716901	0.03497828675942633	0.3290221936647975	0.9574870828804588	-0.0012478876847890358	0.382821302656506	0.9672655989388469
31	0.5344827586206896	0.2448256617862977	0.6460295066990085	0.9211576202164429	0.25592788215032664	0.7246473357627157	1.3820930287929127	0.2678769080928506	0.9217119466741334	1.8224471331469632	0.2235713537061131	0.6523124573815023	1.859731996383468	0.30152381454175287	0.7157114228176515	1.8720627546809436	0.27720806973079704	0.9916616547281197	1.8735047853217666	0.02407630110624446	0.6636013695661893	0.9363918153109344	0.061626017774774465	0.7697837770351766	1.3904183089780158	0.09367724993463042	0.9011748605706773	1.8188500487731558	0.09785287375198021	0.6947718421380402	1.8612204493537634	0.04647675518978494	0.7438777362829645	1.8707660330648264	0.12663339074150098	1.025363319955168	1.891775894910112	0.09183570015328568	0.4753999614674284	0.3891044637951962	0.07081823186820863	0.32420358498941876	0.1644704506168663	0.06626573180922951	0.30665287177915684	0.31100297022258383	0.2510882475085364	0.4368923828798023	0.4526032844266479	0.3509792582820397	0.5361836547051374	0.7111161351198895	0.24450826241357504	0.4022890421407902	0.9047167419009298	0.1618932396283934	0.3424477078219417	0.9747749616897918	0.1721705531833364	0.3183327494512662	0.9793015134882022	0.18447664654883644	0.3575727579999924	1.0088442697473647	-0.06432898031622655	0.4634562586052203	0.45220152373977485	-0.13181363979768332	0.536768427289367	0.6822986955846617	-0.030316087290295505	0.42381782508783844	0.8841409254550481	0.0361194156106313	0.35048935472666454	0.9400912166229418	0.02400985436578074	0.31930720191532774	0.9565999348531957	-0.011103743564614283	0.36928322232742394	0.9626748622562206
32	0.5517241379310345	0.2463228168995276	0.6261623735579636	0.9038618165896689	0.2563600701278048	0.7234994750926885	1.3726364377755693	0.2679772489727903	0.9230574560063123	1.8224261233536618	0.22398591900342726	0.6529899975524414	1.859829276874446	0.3019133074629929	0.7160001158060522	1.8720589180001912	0.27806366807948496	0.9901963187127528	1.8688249590722246	0.022883260520247375	0.6585415933166816	0.9247339800117942	0.06054069534830177	0.7686404469264753	1.381715913795531	0.09333632843616606	0.9019152343614185	1.8146919056989488	0.09793558273830676	0.6948656909643791	1.8612633456804177	0.04654931633071237	0.7440495083101163	1.8708174676638094	0.1274561432837686	1.0273578623544566	1.8923911634571926	0.0872972442424301	0.4635618267048578	0.3908941344238451	0.07087205567324238	0.3243040757908171	0.16807151722605668	0.06631541851211442	0.30692994527414075	0.31414529292888127	0.2511174387542704	0.4369887799241142	0.452604964026616	0.3512004287399047	0.535717621691522	0.7077173889367626	0.2508103203904293	0.3646567490630495	0.8986446074762735	0.16390266841648315	0.3195801162068632	0.96881059339648	0.1782588865051078	0.28106507020730603	0.9721045338082105	0.21452154101789903	0.3286057682494022	0.9942126048584559	-0.06427019552810558	0.46328890019883484	0.4523415876070057	-0.1396859018122534	0.523979426602525	0.6798091748402142	-0.034366750208525046	0.4219460217675608	0.8808593491800821	0.03141472602362648	0.33898416993575714	0.9391472014810829	0.015379662493896416	0.29647520223706547	0.9517674684272222	-0.02534371854554727	0.3461107150947591	0.9608867985739638
